<svg width="24" height="24" viewBox="0 0 24 24" fill="none" xmlns="http://www.w3.org/2000/svg">
<g clip-path="url(#clip0_79_22)">
<path d="M22.65 14.39L12 22.13L1.35001 14.39C1.20723 14.285 1.10133 14.1375 1.04744 13.9687C0.993557 13.7998 0.994455 13.6183 1.05001 13.45L2.27001 9.66999L4.71001 2.15999C4.73367 2.0988 4.77135 2.044 4.82001 1.99999C4.89925 1.92761 5.00269 1.88748 5.11001 1.88748C5.21733 1.88748 5.32077 1.92761 5.40001 1.99999C5.45139 2.04966 5.48925 2.11161 5.51001 2.17999L7.95001 9.66999H16.05L18.49 2.15999C18.5137 2.0988 18.5513 2.044 18.6 1.99999C18.6792 1.92761 18.7827 1.88748 18.89 1.88748C18.9973 1.88748 19.1008 1.92761 19.18 1.99999C19.2314 2.04966 19.2693 2.11161 19.29 2.17999L21.73 9.68999L23 13.45C23.0505 13.6235 23.0438 13.8086 22.9807 13.978C22.9177 14.1473 22.8017 14.2918 22.65 14.39Z" stroke="white" stroke-width="2.5" stroke-linecap="round" stroke-linejoin="round"/>
</g>
<defs>
<clipPath id="clip0_79_22">
<rect width="24" height="24" fill="white"/>
</clipPath>
</defs>
</svg>
